<?xml version="1.0" encoding="utf-8"?>
<!-- Generator: Adobe Illustrator 24.2.1, SVG Export Plug-In . SVG Version: 6.00 Build 0)  -->
<svg version="1.1" xmlns="http://www.w3.org/2000/svg" xmlns:xlink="http://www.w3.org/1999/xlink" x="0px" y="0px"
	 viewBox="0 0 1000 1000" style="enable-background:new 0 0 1000 1000;" xml:space="preserve">
<style type="text/css">
	.st0{display:none;}
	.st1{display:inline;}
	.st2{fill:#FFD4E9;}
</style>
<g id="Capa_1" class="st0">
	<g class="st1">
		<rect width="1000" height="1000"/>
	</g>
</g>
<g id="Capa_2">
	<g>
		<path class="st2" d="M1000,775.38c-3.14,9.17-5.22,18.89-9.61,27.42c-15.74,30.6-41.4,46.53-75.68,48.66
			c-2.59,0.16-5.2,0.08-7.81,0.08c-271.71,0-543.41,0.02-815.12-0.02c-43.55-0.01-78.07-25.38-88.52-65.39
			c-2.11-8.08-3.09-16.68-3.1-25.04c-0.17-174.09-0.2-348.18-0.09-522.26c0.03-52.38,38.18-90.35,90.75-90.36
			c272.68-0.08,545.37-0.06,818.05-0.01c45.82,0.01,79.24,26.95,89.46,71.61c0.36,1.56,1.1,3.02,1.67,4.53
			C1000,408.21,1000,591.8,1000,775.38z M102.17,207.5c3.29,3.44,5.26,5.57,7.31,7.63c120.63,121,241.53,241.72,361.58,363.29
			c17.24,17.46,41.16,16.98,57.77,0.17C648.91,457.05,769.8,336.31,890.42,215.3c2.19-2.19,4.2-4.56,7.17-7.81
			C632.09,207.5,368.05,207.5,102.17,207.5z M101.76,792.08c266.31,0,530.46,0,796.49,0c-84.56-83.81-167.72-166.25-251.33-249.13
			c-1.91,1.82-4.5,4.19-6.97,6.67c-24.37,24.43-48.62,48.97-73.09,73.29c-38.36,38.14-95.33,38.1-133.65,0
			c-14.77-14.69-29.39-29.54-44.1-44.28c-12.13-12.16-24.31-24.28-35.9-35.86C269.5,625.78,186.34,708.22,101.76,792.08z
			 M59.19,251.4c0,165.14,0,332.07,0,497c83.05-82.27,166.81-165.26,250.83-248.5C226.05,416.72,142.3,333.75,59.19,251.4z
			 M940.58,748.73c0-165.16,0-332.19,0-496.07C858.07,334.35,774.29,417.3,690.1,500.64C773.84,583.57,857.47,666.41,940.58,748.73z
			"/>
	</g>
</g>
</svg>
