<?xml version="1.0" encoding="utf-8"?>
<!-- Generator: Adobe Illustrator 24.2.1, SVG Export Plug-In . SVG Version: 6.00 Build 0)  -->
<svg version="1.1" xmlns="http://www.w3.org/2000/svg" xmlns:xlink="http://www.w3.org/1999/xlink" x="0px" y="0px"
	 viewBox="0 0 1000 1000" style="enable-background:new 0 0 1000 1000;" xml:space="preserve">
<style type="text/css">
	.st0{display:none;}
	.st1{display:inline;}
	.st2{fill:#FFD4E9;}
</style>
<g id="Capa_1" class="st0">
	<g class="st1">
		<rect width="1000" height="1000"/>
	</g>
</g>
<g id="Capa_2">
	<g>
		<path class="st2" d="M999.86,93.83c0,270.81,0,541.62,0,812.43c-0.59,1.45-1.45,2.85-1.72,4.36
			c-5.36,29.95-20.27,54.37-45.91,70.3c-13.94,8.66-30.64,12.87-46.09,19.08c-270.75,0-541.5,0-812.25,0
			c-1.13-0.55-2.21-1.37-3.41-1.6C36.27,987.96,0.27,945.53,0.24,890.73C0.09,630.36,0.09,369.98,0.42,109.61
			c0.02-12.14,2.07-24.79,5.86-36.32C21.4,27.4,62.04,0.11,113.57,0.1c205-0.03,410-0.01,615-0.01c54.34,0,108.68-0.25,163.02,0.1
			c36.54,0.24,66.96,14.75,87.31,45.11C988.56,59.69,993.04,77.54,999.86,93.83z M392.43,408.1c0-7.6-0.1-13.74,0.02-19.88
			c0.65-34.78-1.22-69.84,2.54-104.29c8.87-81.13,81.74-151.35,163-156.59c48.61-3.14,97.54-1.77,146.32-1.66
			c17.63,0.04,28.67,12.87,28.74,31.55c0.19,50.77,0.21,101.54-0.01,152.31c-0.08,19.86-11.78,31.28-31.81,31.61
			c-15.61,0.25-31.24,0.06-46.85,0.06c-15.21,0-30.43,0-46.2,0c0,22.67,0,44.27,0,66.9c4.02,0,7.51,0,11,0
			c27.98,0,55.97-0.17,83.95,0.07c19.19,0.16,31.39,14.05,29.54,33.15c-0.41,4.19-1.37,8.33-2.2,12.47
			c-9.7,48.44-19.27,96.9-29.22,145.28c-3.22,15.68-13.8,23.83-29.75,24.2c-5.85,0.14-11.71,0.04-17.57,0.04
			c-15.17,0-30.34,0-45.75,0c0,106.63,0,211.9,0,318.09c4.05,0,7.55,0,11.05,0c88.83,0,177.65,0.01,266.48,0
			c35.89,0,55.59-19.62,55.59-55.37c0-257.43-0.01-514.86-0.04-772.28c0-35.22-19.79-55.07-54.89-55.07
			c-257.37-0.01-514.74-0.01-772.11,0c-35.98,0-55.49,19.51-55.49,55.44c-0.01,257.43-0.01,514.86,0,772.28
			c0,35.24,19.73,54.99,54.94,55c89.15,0.02,178.31,0.01,267.46,0.01c3.47,0,6.94,0,10.4,0c0-106.65,0-212.14,0-318.09
			c-30.48,0-60.07,0.02-89.67-0.01c-24.32-0.02-34.93-10.65-34.96-35.13c-0.04-48.17-0.04-96.33,0-144.5
			c0.02-25.13,10.47-35.57,35.49-35.58C331.96,408.09,361.52,408.1,392.43,408.1z M673.89,184.55c-3.48-0.2-6.33-0.51-9.18-0.51
			c-27.98-0.04-55.95-0.14-83.93,0c-73.88,0.38-129.5,56.03-129.75,129.82c-0.13,39.69,0.02,79.39-0.05,119.08
			c-0.04,21.97-11.8,33.67-33.8,33.73c-27,0.06-54,0.02-81,0.02c-3.39,0-6.79,0-10.15,0c0,33.42,0,65.19,0,98.04c4.02,0,7.51,0,11,0
			c25.7,0,51.4-0.01,77.09,0c26.08,0.01,36.87,10.7,36.88,36.57c0.01,109.32,0,218.65,0,327.97c0,3.79,0,7.57,0,11.56
			c33.19,0,65.21,0,98.02,0c0-4.08,0-7.59,0-11.1c0-109.65-0.01-219.3,0-328.95c0-25.19,10.97-36.03,36.4-36.05
			c20.78-0.01,41.56,0,63.08,0c6.55-32.67,12.99-64.76,19.67-98.04c-3.9,0-7.06,0-10.22,0c-25.05,0-50.1,0.05-75.14-0.02
			c-22-0.06-33.75-11.77-33.78-33.74c-0.06-39.04-0.07-78.09,0-117.13c0.04-21.58,11.5-33.05,33.17-33.15c27-0.12,54-0.03,81-0.03
			c3.46,0,6.91,0,10.67,0C673.89,249.17,673.89,217.13,673.89,184.55z"/>
	</g>
</g>
</svg>
