<?xml version="1.0" encoding="utf-8"?>
<!-- Generator: Adobe Illustrator 24.2.1, SVG Export Plug-In . SVG Version: 6.00 Build 0)  -->
<svg version="1.1" xmlns="http://www.w3.org/2000/svg" xmlns:xlink="http://www.w3.org/1999/xlink" x="0px" y="0px"
	 viewBox="0 0 1000 1000" style="enable-background:new 0 0 1000 1000;" xml:space="preserve">
<style type="text/css">
	.st0{display:none;}
	.st1{display:inline;}
	.st2{fill:#FFD4E9;}
</style>
<g id="Capa_1" class="st0">
	<g class="st1">
		<rect width="1000" height="1000"/>
	</g>
</g>
<g id="Capa_2">
	<g>
		<path class="st2" d="M4.92,755.33c0-170.09,0-340.17,0-510.26c0.6-2.48,1.48-4.92,1.76-7.44C21.08,107.65,131.78,6.41,262.7,5.68
			c157.83-0.88,315.68-0.91,473.51-0.01C877.84,6.47,993.64,122.25,994.46,263.9c0.91,157.48,0.73,314.97,0.03,472.45
			C994,847.82,921.02,946.88,814.93,981.38C795.53,987.69,775,990.55,755,995c-170.12,0-340.24,0-510.36,0
			c-2.13-0.57-4.22-1.44-6.38-1.68C131.98,981.54,43.1,906.26,14.73,803.34C10.4,787.63,8.14,771.35,4.92,755.33z M62.92,500.22
			c0,77.3-0.18,154.61,0.04,231.91C63.3,846.5,153.6,936.78,268.12,936.96c154.32,0.23,308.64,0.21,462.95,0.01
			c115.14-0.15,205.39-90.26,205.58-205.37c0.25-154.29,0.25-308.58,0-462.86c-0.19-115.1-90.46-205.16-205.63-205.3
			c-154.32-0.19-308.64-0.1-462.95,0.07c-11.54,0.01-23.27,0.68-34.6,2.76C131.51,85.04,63.01,167.53,62.93,271.2
			C62.87,347.54,62.92,423.88,62.92,500.22z"/>
		<path class="st2" d="M746.12,499.94c0.31,135.84-110.26,246.51-246.3,246.52c-136.01,0.01-246.58-110.66-246.3-246.51
			c0.28-135.84,109.77-245.41,245.81-246.01C635.07,253.35,745.81,363.74,746.12,499.94z M311.52,499.85
			c-0.29,103.68,83.32,187.8,187.47,188.63c103.76,0.82,188.83-83.71,189.13-187.94c0.3-104.05-84.33-188.75-188.45-188.61
			C395.81,312.06,311.81,395.96,311.52,499.85z"/>
		<path class="st2" d="M775.1,253.29c-16.13-0.18-28.5-12.91-28.32-29.13c0.18-16.09,13.13-28.76,29.1-28.49
			c15.84,0.27,28.78,13.56,28.51,29.29C804.13,240.99,791.22,253.47,775.1,253.29z"/>
	</g>
</g>
</svg>
