<?xml version="1.0" encoding="utf-8"?>
<!-- Generator: Adobe Illustrator 24.2.1, SVG Export Plug-In . SVG Version: 6.00 Build 0)  -->
<svg version="1.1" id="Capa_1" xmlns="http://www.w3.org/2000/svg" xmlns:xlink="http://www.w3.org/1999/xlink" x="0px" y="0px"
	 viewBox="0 0 379 18" style="enable-background:new 0 0 379 18;" xml:space="preserve">
<style type="text/css">
	.st0{display:none;}
	.st1{fill:#FFFFFF;}
</style>
<rect x="0" class="st0" width="379" height="18"/>
<g>
	<g>
		<g>
			<path class="st1" d="M5,11.75c3.04,0,6.09,0,9.13,0c8.21,0,16.41,0,24.62,0c12.17,0,24.34,0,36.5,0c14.85,0,29.69,0,44.54,0
				c16.2,0,32.41,0,48.61,0c16.47,0,32.93,0,49.4,0c15.25,0,30.5,0,45.75,0c12.93,0,25.87,0,38.8,0c9.3,0,18.6,0,27.89,0
				c4.39,0,8.79,0.08,13.18,0c0.19,0,0.38,0,0.58,0c3.86,0,3.87-6,0-6c-3.04,0-6.09,0-9.13,0c-8.21,0-16.41,0-24.62,0
				c-12.17,0-24.34,0-36.5,0c-14.85,0-29.69,0-44.54,0c-16.2,0-32.41,0-48.61,0c-16.47,0-32.93,0-49.4,0c-15.25,0-30.5,0-45.75,0
				c-12.93,0-25.87,0-38.8,0c-9.3,0-18.6,0-27.89,0c-4.39,0-8.79-0.08-13.18,0c-0.19,0-0.38,0-0.58,0C1.14,5.75,1.13,11.75,5,11.75
				L5,11.75z"/>
		</g>
	</g>
</g>
<circle class="st1" cx="370.5" cy="8.75" r="6.5"/>
</svg>
