<?xml version="1.0" encoding="utf-8"?>
<!-- Generator: Adobe Illustrator 24.2.1, SVG Export Plug-In . SVG Version: 6.00 Build 0)  -->
<svg version="1.1" id="Capa_1" xmlns="http://www.w3.org/2000/svg" xmlns:xlink="http://www.w3.org/1999/xlink" x="0px" y="0px"
	 viewBox="0 0 264 324" style="enable-background:new 0 0 264 324;" xml:space="preserve">
<style type="text/css">
	.st0{opacity:0.3;clip-path:url(#SVGID_5_);}
	.st1{fill:#D8834A;}
	.st2{clip-path:url(#SVGID_5_);}
	.st3{fill:#FF9105;}
	.st4{clip-path:url(#SVGID_6_);}
	.st5{fill:#111111;}
	.st6{clip-path:url(#SVGID_7_);}
	.st7{fill:#FFEECC;}
	.st8{clip-path:url(#SVGID_8_);}
	.st9{fill:#FFE5B6;}
	.st10{fill:#D87203;}
	.st11{fill:#AF7F57;}
	.st12{fill:#FDFDFE;}
	.st13{fill:#020202;}
	.st14{fill:#0A0807;}
	.st15{fill:#0A0A0B;}
	.st16{fill:#0A0604;}
	.st17{fill:#0D0905;}
	.st18{fill:#FFD3B3;}
	.st19{fill:#FFFFFF;}
	.st20{fill:#FFC01C;}
	.st21{fill:#683A0C;}
	.st22{clip-path:url(#XMLID_7_);fill:#FFC01C;}
</style>
<g>
	<g>
		<g>
			<defs>
				<path id="SVGID_4_" d="M263.21,88.37c-0.25-2.99-2.26-5.58-4.79-7.13c-2.93-1.8-6.7-2.54-10.1-2.2
					c-3.61,0.36-7.06,1.06-10.47,1.82l-0.02,0c-1.43,0.32-2.88,0.52-4.34,0.6c-4.44,0.22-10.71,0.01-15.85-0.84
					c-6.28-1.03-14.58-1.82-21.18-1.23c-5.88,0.53-20.38-11.98-27.22-15.86c-6.84-3.88-8.96-8.22-21.46-11.45
					s-31.42-5.17-31.42-5.17S88.9,42.8,77.2,50.62c-8.64,5.77-21.53,7.67-23.17,7.59c-0.78-0.04-5.7-0.11-10.73-1.38
					c-7.01-1.78-13.74-5.84-19.8-9.77c-0.52-0.34-0.74-0.99-0.53-1.57c0.86-2.39,2.78-8.46,0.8-10.06c-1.78-1.44-3.3,1.57-4.02,3.39
					c-0.2,0.5-0.88,0.57-1.17,0.12l-5.39-9.29c-0.43-0.74-1.34-1.12-2.14-0.82c-0.94,0.36-1.37,1.42-0.96,2.33l2.99,6.59l-4.42-8.11
					c-0.42-0.78-1.37-1.16-2.19-0.81c-0.93,0.4-1.3,1.49-0.84,2.36l4.1,7.79l-3.39-5.65c-0.58-0.96-1.97-1.8-3.09-1.86h0
					c-0.77-0.04-1.28,0.77-0.92,1.45l3.93,7.3l-3.45-5.55C2.54,34.22,1.97,34,1.48,34.2c-0.57,0.23-0.83,0.85-0.62,1.4
					c1.08,2.88,5.16,13.09,9.7,15.7c1.51,0.87,2.96,1.5,4.21,2.71c2.1,2.04,4.52,5.48,5.89,7.26c2.49,3.22,9.14,9.71,13.23,11.84
					c5.26,2.74,9.7,5.2,18.81,6.15c9.1,0.95,27.36-2.56,29.49-2.91c2.13-0.36,6.96-2.92,6.91,2.47c-0.05,5.4,1.47,16.52,2.22,20.3
					c0.74,3.68,4.92,18.1,3.36,25.53c-1.56,7.43-6.01,25.04-6.24,33.94c-0.23,8.91,3.46,38.44,3.22,43.12s-2.38,25.93-3.26,33.86
					c-0.89,7.93-3.62,51.22-3.95,53.08l21.54,1.13c0,0,3.81-36.89,5.75-47.11c1.94-10.23,7.8-20.48,7.71-27.76
					c-0.09-7.28,4.2-31.47,4.2-31.47s12.18,16.21,14.91,22.14c2.81,6.12,6.1,9,1.09,24c-5.01,14.99-11.18,38.61-13.28,42.96
					c-2.11,4.35,21.05,10.49,21.62,8.41c0.47-1.68,12.92-36.93,17.72-50.51c0.87-2.45,1.81-4.88,2.8-7.29
					c1.5-3.69,4-12.01,0.87-21.18c-0.37-1.1-0.76-2.19-1.1-3.3c-2.24-7.27-10.52-33.25-17.65-44.45c-1.13-1.78-2.27-3.55-3.37-5.35
					l-2.03-3.33c-1.4-2.31-1.94-5.03-1.53-7.7c1.34-8.59,4.43-28.25,5.93-36.13c1.94-10.23,3.66-16,6.02-16.35
					c2.37-0.35,22.24,10.08,30.84,11.71c7.43,1.4,26.65,2.26,43.19-3.68c2.21-0.79,4.47-1.45,6.76-1.94l0.03-0.01
					c1.53-0.33,2.74-0.58,3.55-0.7c3.78-0.55,6.58,3.39,9.02,5.59c0.55,0.49,1.13,0.96,1.83,1.21c0.69,0.25,1.51,0.24,2.11-0.17
					c0.41-0.28,0.7-0.77,0.61-1.25c-0.09-0.45-0.46-0.77-0.82-1.06c-1.73-1.4-4.25-3.93-3.93-6.39c0-0.02,0-0.03,0.01-0.05
					c0.32-2.31,3.48-2.8,4.54-0.73c0.14,0.27,0.24,0.56,0.29,0.87c0.35,2.19,1.87,4.85,3.16,4.35c1.04-0.4,1.83-3.14,0.52-5.53
					c1.14,0.68,2.23,1.45,3.4,2.08c0.64,0.34,1.41,0.65,2.04-0.01C263.12,89.31,263.25,88.83,263.21,88.37z"/>
			</defs>
			<use xlink:href="#SVGID_4_"  style="overflow:visible;fill:#FFF3E9;"/>
			<clipPath id="SVGID_5_">
				<use xlink:href="#SVGID_4_"  style="overflow:visible;"/>
			</clipPath>
			<g class="st0">
				<path class="st1" d="M152.49,90.88c-0.03,0-0.06-0.01-0.09-0.02c-0.18-0.06-0.28-0.25-0.22-0.44c0.19-0.61,4.8-14.89,7.99-19.01
					c0.12-0.15,0.33-0.18,0.49-0.06c0.15,0.12,0.18,0.33,0.06,0.49c-3.11,4.02-7.83,18.65-7.87,18.79
					C152.78,90.79,152.64,90.88,152.49,90.88z"/>
			</g>
			<g class="st2">
				<g>
					<polygon class="st3" points="36.63,43.45 14.53,64.95 11.36,61.79 34.46,41.04 					"/>
				</g>
				<g>
					<polygon class="st3" points="56.37,51.73 60.15,82.82 52.25,82.76 52.49,51.71 					"/>
				</g>
				<g>
					<polygon class="st3" points="227.94,74.78 239.69,103.28 243.86,101.64 230.89,73.42 					"/>
				</g>
				<g>
					<polygon class="st3" points="193.11,73.03 186.1,103.56 193.96,104.33 196.97,73.42 					"/>
				</g>
				<g>
					<polygon class="st3" points="126.66,207.27 83.11,204.07 84.12,196.09 127.52,201.87 					"/>
				</g>
				<g>
					<polygon class="st3" points="178.83,209.86 136.51,220.61 134.94,212.72 177.93,204.46 					"/>
				</g>
			</g>
			<g class="st0">
				<g>
					<path class="st1" d="M128.13,142.24l-0.02-6.25l-28.94-9.72l-11.85-5.07l-0.13,1.05l-6.54-2.2l0.65,18.8l3.79,1.14l-1.41,12.45
						l2.41,25.87l1.44,28.16l-3.97,56.63l-3.72,0.81l-1.45,8.62l13.62,1.72c0,0,1.21-10.3,1-19.01c-0.21-8.7,5.88-48.51,6.95-56.14
						c1.07-7.63-2.41-30.55-3.19-41.29c-0.19-2.64,0.11-5.78,0.67-9.02c1.34-7.7,8.22-13.28,16.02-12.88
						C118.05,136.15,123.04,137.89,128.13,142.24z"/>
				</g>
				<g>
					<path class="st1" d="M134.39,155.93c2.5-5.22,6.58-9.88,13.2-12.06l-0.92-5.1L128.12,136c0,0,0.37,22.87-1.8,34.4l-3.81,19.83
						l16.33,26.3l-14.4,41.04l10.61,6.73c0,0,13.1-38.76,14.75-51.04c0.91-6.78-6.35-19.14-13.03-28.85
						C131,176.01,129.98,165.12,134.39,155.93z"/>
				</g>
				<g>
					<path class="st1" d="M101.8,125.98c0,0,0.82-15.83-2.1-23.93s-4.57-21.19-4.39-24.71c0.08-1.59,0.28-3.95,0.46-6.06
						c0.2-2.32-1.95-4.14-4.2-3.56c-8.2,2.12-24.6,6.28-26.84,6.17c-3-0.16-24.45,0.83-34.61-9.45S13.3,50.75,10.11,47.8
						c-3.19-2.94-7-12.95-12.39-12.12c-5.39,0.83,16.73,27.93,16.73,27.93l28.11,18.65l40.01,2.1l9.37,31.75l-1.73,6.34
						L101.8,125.98z"/>
				</g>
				<g>
					<path class="st1" d="M157.64,77.41c0,0,22.82,11.83,29.48,12.42s38.66,2.42,48.48-0.64c9.82-3.06,17.39,8.18,17.39,8.18
						l-0.88,1.49c0,0-4.05-0.72-5.09-0.69c-1.04,0.03-4.7-3.88-4.7-3.88s-15.35,3.65-16.85,3.87c-1.5,0.22-33.84,2.09-33.84,2.09
						l-12.66-2.3l-15.94-7.82l-9.64-1.42C153.39,88.73,156.02,80.11,157.64,77.41z"/>
				</g>
			</g>
			<g class="st2">
				
					<ellipse transform="matrix(0.982 -0.1886 0.1886 0.982 -7.3247 17.9753)" class="st3" cx="90.77" cy="47.47" rx="8.27" ry="6.14"/>
			</g>
		</g>
		<g>
			<g>
				<defs>
					<path id="SVGID_3_" d="M129.84,254.39c-0.03,0.09-0.05,0.17-0.08,0.26c-2.14,7.06-4.46,14.08-6.97,21.04
						c-1.98,5.49-4.62,16.49-4.79,17.64c-0.34,2.33,26.34,26.72,36.04,21.74c8.93-4.58,5.49-13.77,2.41-17.32
						c-3.55-4.08-5.88-5.67-7.15-6.28c-0.65-0.32-0.94-1.02-0.69-1.66l8.75-22.18c0.76-1.94-0.34-4.09-2.45-4.78L129.84,254.39
						L129.84,254.39z"/>
				</defs>
				<use xlink:href="#SVGID_3_"  style="overflow:visible;fill:#303030;"/>
				<clipPath id="SVGID_6_">
					<use xlink:href="#SVGID_3_"  style="overflow:visible;"/>
				</clipPath>
				<g class="st4">
					
						<ellipse transform="matrix(0.4789 -0.8779 0.8779 0.4789 -198.0584 277.8976)" class="st5" cx="135.05" cy="305.78" rx="5.5" ry="21.73"/>
				</g>
			</g>
			<g>
				<defs>
					<path id="SVGID_2_" d="M81.99,267.52c0,0.09-0.01,0.18-0.01,0.27c-0.36,7.34-0.91,14.67-1.66,21.99
						c-0.59,5.77-0.48,17.06-0.36,18.22c0.23,2.35,32.12,20.61,40.34,13.73c7.57-6.33,1.99-14.59-1.88-17.41
						c-4.45-3.24-7.09-4.31-8.48-4.65c-0.71-0.17-1.17-0.8-1.08-1.47l3.11-23.47c0.27-2.05-1.33-3.92-3.55-4.16L81.99,267.52
						L81.99,267.52z"/>
				</defs>
				<use xlink:href="#SVGID_2_"  style="overflow:visible;fill:#303030;"/>
				<clipPath id="SVGID_7_">
					<use xlink:href="#SVGID_2_"  style="overflow:visible;"/>
				</clipPath>
				<g class="st6">
					
						<ellipse transform="matrix(0.3621 -0.9321 0.9321 0.3621 -232.0919 293.373)" class="st5" cx="98.31" cy="316.27" rx="6.33" ry="20.63"/>
				</g>
			</g>
		</g>
		<g>
			<g>
				<g>
					<polygon class="st7" points="129.57,0.88 129.57,0.88 129.58,0.88 					"/>
				</g>
				<g>
					<defs>
						<path id="SVGID_1_" d="M155.44,24.45c0.19-4.37-0.79-8.47-2.88-12.31c-0.31-0.57-0.91-1-0.86-1.74
							c-0.04-0.06-0.08-0.1-0.12-0.16c-0.13-0.03-0.24-0.07-0.28-0.22c-0.28-0.3-0.57-0.58-0.82-0.9c-1.73-2.22-3.86-3.97-6.27-5.4
							c-2.74-1.62-5.72-2.49-8.86-2.91c-1.75-0.06-3.51-0.17-5.25,0.11c-0.17,0.03-0.35-0.03-0.52-0.04
							c-0.06,0.08-0.13,0.1-0.22,0.11c-0.29,0.05-0.76,0.14-1.04,0.2c-2.01,0.59-4,1.19-5.86,2.2c-3.6,1.95-6.45,4.65-8.61,8.12
							c-1.26,2.03-2.09,4.22-2.72,6.51c-0.33,1.86-0.68,3.72-0.83,5.61c0.02,1.18-0.02,2.36,0.06,3.54
							c0.17,2.34,0.63,4.63,1.57,6.79c0.08,0.18,0.21,0.35,0.17,0.57c0.78,1.58,0.93,3.31,1.13,5.03c0.01,0.27,0.02,0.54,0.03,0.8
							c9.76,1.73,19.52,3.45,29.28,5.17c0.3,0.05,0.61,0.08,0.91,0.12c1.05-2.31,2.66-4.16,4.66-5.71c0.29-0.22,0.61-0.44,0.88-0.7
							c0.46-0.34,3.89-2.98,4.93-7.25c0.05-0.2,0.1-0.39,0.17-0.59c0.02-0.04,0.03-0.09,0.04-0.13c0.35-0.99,0.49-2.02,0.8-3.02
							C155.13,26.99,155.43,25.74,155.44,24.45z M117.11,32.12c-2.89-0.58-4.64-3.16-4.1-6.03c0.54-2.88,3.02-4.65,5.98-4.16
							c2.79,0.46,4.74,3.23,4.09,5.99C122.75,30.71,119.94,32.68,117.11,32.12z M153.62,31.52l-0.38-0.08
							c-0.9,4.42-4.72,7.18-4.76,7.21l0.17,0.23c-1.74,1.29-3.64,2.24-5.84,2.56c-0.37,0.05-0.75,0.07-1.13,0.1
							c-2.06,0.29-4.05-0.09-6.01-0.71c-3.52-1.12-6.63-3.01-9.49-5.31c-1.24-1-1.72-2.31-1.45-3.87c0.39-2.24,0.81-4.47,1.21-6.7
							c-0.03-2.91,1.74-4.59,4.03-5.93c1.23-1.06,2.56-1.97,3.99-2.73c2.22-1.39,4.53-2.57,7.11-3.12
							c5.67-1.68,10.95,0.45,12.86,6.82C155.08,23.86,154.85,27.71,153.62,31.52z"/>
					</defs>
					<use xlink:href="#SVGID_1_"  style="overflow:visible;fill:#FFEECC;"/>
					<clipPath id="SVGID_8_">
						<use xlink:href="#SVGID_1_"  style="overflow:visible;"/>
					</clipPath>
					<g class="st8">
						<path class="st9" d="M141.34,1.08c0,0-19.55,2.44-22.05,17.22c-2.51,14.78-0.4,20.78,1.1,25.37s-13.45-1.4-13.45-1.4
							l-0.59-28.46l19.14-14.6L141.34,1.08z"/>
					</g>
				</g>
				<g>
					<path class="st7" d="M116.12,24.54c-1.31,1.06-1.58,2.9-0.63,4.3c0.44,0.65,1.36,0.77,2.05,0.36c0.78-0.47,1.1-1.23,1.32-2.02
						c0.07-0.64,0.04-1.25-0.19-1.83C118.21,24.24,117.01,23.82,116.12,24.54z"/>
				</g>
			</g>
			<g>
				<path class="st10" d="M149.55,38.18c-1.98,1.64-4.15,2.89-6.74,3.27c-0.37,0.05-0.75,0.07-1.13,0.1
					c0.01-0.14,0.11-0.21,0.22-0.29c1.76-1.25,2.73-2.95,3.08-5.07c0.64-3.82,1.33-7.63,2.02-11.44c0.39-2.17,0.14-4.26-0.78-6.26
					c0.17-0.11,0.06-0.22,0.01-0.32c-0.42-0.91-1.02-1.7-1.66-2.46c-0.95-1.13-2.21-1.86-3.5-2.53c5.67-1.68,10.95,0.45,12.86,6.82
					c1.22,4.07,0.91,8.11-0.48,12.1c-0.04,0.12-0.07,0.24-0.1,0.36c0,0,0.01,0.01,0.01,0.01c-0.09,0.21-0.18,0.42-0.27,0.63
					c-0.5,1.08-1.11,2.09-1.73,3.1c-0.41,0.49-0.81,0.98-1.22,1.47c0,0-0.01-0.01-0.01-0.01c-0.08,0.07-0.16,0.15-0.24,0.22
					l-0.02,0.02C149.75,37.98,149.65,38.08,149.55,38.18L149.55,38.18z"/>
			</g>
			<g>
				<path class="st11" d="M144.98,36.18c0.64-3.82,1.33-7.63,2.02-11.44c0.39-2.17,0.14-4.26-0.78-6.26
					c-4.09-0.73-8.18-1.46-12.27-2.2c-1.43,0.76-2.76,1.67-3.99,2.73c-1.04,1.96-2.31,3.78-3.44,5.69
					c-0.15,0.25-0.35,0.26-0.59,0.25c-0.41,2.23-0.83,4.47-1.21,6.7c-0.27,1.56,0.22,2.88,1.45,3.87c2.86,2.3,5.96,4.19,9.49,5.31
					c1.95,0.62,3.94,1,6.01,0.71c0.01-0.14,0.11-0.21,0.22-0.29C143.66,40.01,144.62,38.3,144.98,36.18z"/>
			</g>
			<g>
				<path class="st12" d="M123.08,27.91c-0.33,2.8-3.14,4.77-5.97,4.2c-2.89-0.58-4.64-3.16-4.1-6.03c0.54-2.88,3.02-4.65,5.98-4.16
					C121.78,22.38,123.73,25.16,123.08,27.91z M118.86,27.18c0.07-0.64,0.04-1.25-0.19-1.83c-0.46-1.11-1.65-1.53-2.55-0.81
					c-1.31,1.06-1.58,2.9-0.63,4.3c0.44,0.65,1.36,0.77,2.05,0.36C118.32,28.74,118.64,27.97,118.86,27.18z"/>
			</g>
			<g>
				<path class="st13" d="M146.22,18.15c-0.42-0.91-1.02-1.7-1.66-2.46c-0.95-1.13-2.21-1.86-3.5-2.53
					c-2.58,0.56-4.89,1.73-7.11,3.12c4.09,0.73,8.18,1.47,12.27,2.2C146.38,18.37,146.27,18.26,146.22,18.15z"/>
			</g>
			<g>
				<path class="st14" d="M125.94,24.94c0.24,0.02,0.44,0,0.59-0.25c1.13-1.91,2.4-3.73,3.44-5.69
					C127.68,20.35,125.91,22.03,125.94,24.94z"/>
			</g>
			<g>
				<path class="st15" d="M144.38,47.43c0.18-1.07,0.04-1.33-0.94-1.77c-0.3-0.04-0.61-0.07-0.91-0.12
					c-9.76-1.72-19.52-3.45-29.28-5.17c-0.39,0.14-0.81,0.25-0.91,0.75l0,0c-0.43,1.84-0.76,3.71-0.99,5.58
					c-0.02,0.79,0.51,1.03,1.16,1.15c2.76,0.49,5.52,0.97,8.28,1.47c3.19,0.57,6.37,1.15,9.55,1.72c1.36,0.23,2.72,0.46,4.08,0.69
					c2.54,0.45,5.08,0.9,7.62,1.35c0.9,0.16,1.35-0.17,1.53-1.05c0.05-0.22,0.1-0.45,0.14-0.67
					C143.94,50.04,144.15,48.73,144.38,47.43z"/>
			</g>
			<g>
				<g>
					<path class="st16" d="M138.33,33.57c-0.33-0.06-0.65-0.13-0.98-0.17c-0.39-0.04-0.58-0.16-0.5-0.63
						c0.08-0.51,0.36-0.44,0.71-0.38c1.31,0.21,1.31,0.2,1.3-1.15c-0.01-1.4-0.04-2.79-0.04-4.19c0-0.32-0.06-0.65,0.48-0.67
						c0.55-0.02,0.54,0.26,0.54,0.64c0.01,2.01,0,4.02,0.06,6.03c0.02,0.69-0.19,0.85-0.81,0.65
						C138.84,33.63,138.58,33.62,138.33,33.57z"/>
				</g>
				<g>
					<path class="st17" d="M136.42,21.9c0.34-0.01,0.42,0.16,0.35,0.44c-0.05,0.24-0.02,0.52-0.43,0.48
						c-1.49-0.16-2.89,0.11-4.21,0.82c-0.4,0.21-0.48-0.11-0.64-0.32c-0.23-0.29,0.01-0.4,0.21-0.51
						C133.19,22.01,134.77,21.73,136.42,21.9z"/>
				</g>
				<g>
					<path class="st17" d="M142.12,28.93c-0.83-0.19-1.53-0.56-1.94-1.35c-0.08-0.16-0.3-0.42-0.04-0.52c0.24-0.09,0.53-0.31,0.83,0
						c1.12,1.18,1.25,1.2,2.69,0.53c0.31-0.15,0.58,0.01,0.75,0.19c0.22,0.22-0.06,0.4-0.2,0.55
						C143.64,28.97,142.9,29.03,142.12,28.93z"/>
				</g>
				<g>
					<path class="st17" d="M134.37,27.56c-0.75-0.17-1.4-0.5-1.82-1.17c-0.12-0.2-0.46-0.49-0.09-0.7c0.26-0.15,0.61-0.25,0.86,0.16
						c0.3,0.51,0.8,0.77,1.4,0.82c0.42,0.04,0.81-0.04,1.12-0.36c0.3-0.3,0.61-0.1,0.81,0.09c0.25,0.25-0.05,0.46-0.21,0.63
						C135.85,27.62,135.12,27.65,134.37,27.56z"/>
				</g>
				<g>
					<path class="st17" d="M141.12,22.85c1.31,0.37,2.44,1.03,3.36,2.03c0.16,0.17,0.43,0.36,0.09,0.62
						c-0.25,0.2-0.47,0.36-0.77,0.02c-0.8-0.9-1.79-1.51-2.97-1.78c-0.39-0.09-0.39-0.31-0.34-0.62
						C140.56,22.68,140.84,22.78,141.12,22.85z"/>
				</g>
				<g>
					<path class="st17" d="M133.97,32.63c0.26,0.01,0.41,0.11,0.43,0.41c0.07,1.08,0.69,1.8,1.64,2.2c0.47,0.19,0.48,0.48,0.33,0.82
						c-0.19,0.4-0.49,0.1-0.71,0.01c-1.29-0.51-2.21-1.83-2.19-3.04C133.48,32.64,133.6,32.52,133.97,32.63z"/>
				</g>
			</g>
		</g>
		<g>
			<g>
				<g>
					<path class="st18" d="M103.43,96.72c-0.6,1.87,0.87,3.83,3.02,4.01h0c7.99,0.69,15.95,1.66,23.87,2.91
						c1.64,0.26,3.21-0.63,3.67-2.07l8.54-26.45c0.32-1-0.47-2.05-1.62-2.14h0c-8.79-0.71-16.48-2.28-25.19-3.67h0
						c-1.39-0.22-2.05,0.63-2.45,1.85L103.43,96.72z"/>
				</g>
				<g>
					<path class="st19" d="M107.26,95.5c-0.59,1.84,0.82,3.76,2.9,3.93l0,0c7.7,0.65,15.38,1.58,23.02,2.78
						c1.59,0.25,3.09-0.62,3.55-2.04l8.32-25.99c0.32-0.98-0.44-2.01-1.56-2.1h0c-8.47-0.67-16.92-1.68-25.32-3.02h0
						c-1.34-0.21-2.61,0.52-2.99,1.71L107.26,95.5z"/>
				</g>
				<g>
					<path class="st20" d="M122.72,92.35c-0.06,0-0.12-0.01-0.18-0.03c-0.36-0.12-0.57-0.51-0.45-0.87l5.28-16.48
						c0.12-0.36,0.51-0.57,0.87-0.45c0.36,0.12,0.57,0.51,0.45,0.87l-5.28,16.48C123.31,92.18,123.02,92.37,122.72,92.35z"/>
				</g>
				<g>
					<path class="st20" d="M116.95,92.03c-0.06,0-0.12-0.01-0.18-0.03c-0.36-0.12-0.57-0.51-0.45-0.87l5.28-16.48
						c0.12-0.36,0.5-0.57,0.87-0.45c0.36,0.12,0.57,0.51,0.45,0.87l-5.28,16.48C117.54,91.85,117.25,92.04,116.95,92.03z"/>
				</g>
				<g>
					
						<ellipse transform="matrix(1 -3.925036e-03 3.925036e-03 1 -0.3539 0.5141)" class="st20" cx="130.79" cy="90.41" rx="3.37" ry="2.64"/>
				</g>
				<g>
					
						<ellipse transform="matrix(1 -3.925036e-03 3.925036e-03 1 -0.3105 0.5271)" class="st20" cx="134.13" cy="79.37" rx="3.37" ry="2.64"/>
				</g>
				<g>
					<g>
						<path class="st21" d="M88.15,131.02c-0.62,0.8-0.4,1.96,0.49,2.52c11.85,7.57,25.55,12.04,39.67,12.91l17.46,1.18
							c1.78,0.12,3.23-1.27,3.09-2.97l-0.58-7.02c-0.12-1.43-1.34-2.58-2.84-2.67l-13.86-0.83c-13.68-0.82-22.96-3.73-34.05-10.69
							c-1.32-0.83-3.06-0.55-3.98,0.63L88.15,131.02z"/>
					</g>
				</g>
			</g>
		</g>
	</g>
	<g>
		<g>
			<defs>
				<path id="XMLID_1_" d="M101.05,141.71L101.05,141.71c4.42,1.05,8.68,2.72,12.67,4.96l1.04,0.58c1.36,0.55,2.89-0.16,3.42-1.57
					l4.38-11.68c0.53-1.42-0.14-3.01-1.49-3.56l-2.41-0.71c-2.9-0.86-5.72-1.99-8.43-3.37l-2.87-1.46
					c-1.36-0.55-2.89,0.16-3.42,1.57l-4.38,11.68C99.02,139.57,99.69,141.16,101.05,141.71z"/>
			</defs>
			<use xlink:href="#XMLID_1_"  style="overflow:visible;fill:#FFDB8A;"/>
			<clipPath id="XMLID_7_">
				<use xlink:href="#XMLID_1_"  style="overflow:visible;"/>
			</clipPath>
			<path class="st22" d="M101.18,131.14c0,0,2.27,6.31,6.75,8.93c3.71,2.17,11.09,3.36,11.09,3.36s-0.4,4.29-0.25,4.38
				c0.15,0.08-1.75,0.57-1.75,0.57l-6.19-1.61l-12.5-4.83L101.18,131.14z"/>
			<use xlink:href="#XMLID_1_"  style="overflow:visible;fill:none;stroke:#F4AF14;stroke-miterlimit:10;"/>
		</g>
		<circle class="st21" cx="108.42" cy="131.02" r="2.87"/>
		<circle class="st19" cx="109.56" cy="130.21" r="0.55"/>
	</g>
</g>
</svg>
