<?xml version="1.0" encoding="utf-8"?>
<!-- Generator: Adobe Illustrator 24.2.1, SVG Export Plug-In . SVG Version: 6.00 Build 0)  -->
<svg version="1.1" id="Capa_1" xmlns="http://www.w3.org/2000/svg" xmlns:xlink="http://www.w3.org/1999/xlink" x="0px" y="0px"
	 viewBox="0 0 300 273" style="enable-background:new 0 0 300 273;" xml:space="preserve">
<style type="text/css">
	.st0{fill:#29099B;}
</style>
<g>
	<path class="st0" d="M272.2,55.48H27.8C12.9,55.48,0.82,43.4,0.82,28.5v0C0.82,13.6,12.9,1.52,27.8,1.52H272.2
		c14.9,0,26.98,12.08,26.98,26.98v0C299.18,43.4,287.1,55.48,272.2,55.48z"/>
	<path class="st0" d="M272.2,163.48H27.8c-14.9,0-26.98-12.08-26.98-26.98v0c0-14.9,12.08-26.98,26.98-26.98H272.2
		c14.9,0,26.98,12.08,26.98,26.98v0C299.18,151.4,287.1,163.48,272.2,163.48z"/>
	<path class="st0" d="M272.2,271.48H27.8c-14.9,0-26.98-12.08-26.98-26.98v0c0-14.9,12.08-26.98,26.98-26.98H272.2
		c14.9,0,26.98,12.08,26.98,26.98v0C299.18,259.4,287.1,271.48,272.2,271.48z"/>
</g>
</svg>
